{
  "accessors": [
    {
      "bufferView": 2,
      "componentType": 5126,
      "count": 5258,
      "max": [
        6.5458173751831055,
        22.43893814086914,
        16.625476837158203
      ],
      "min": [
        -6.5458173751831055,
        -1.8489058017730713,
        -17.154497146606445
      ],
      "type": "VEC3"
    },
    {
      "bufferView": 2,
      "byteOffset": 63096,
      "componentType": 5126,
      "count": 5258,
      "max": [
        1.0,
        1.0,
        0.9999997019767761
      ],
      "min": [
        -1.0,
        -1.0,
        -1.0
      ],
      "type": "VEC3"
    },
    {
      "bufferView": 1,
      "componentType": 5126,
      "count": 5258,
      "max": [
        0.9900977611541748,
        0.9916900992393494
      ],
      "min": [
        0.00900309905409813,
        0.010029613971710205
      ],
      "type": "VEC2"
    },
    {
      "bufferView": 1,
      "byteOffset": 42064,
      "componentType": 5126,
      "count": 5258,
      "max": [
        0.9900977611541748,
        0.9916900992393494
      ],
      "min": [
        0.00900309905409813,
        0.010029613971710205
      ],
      "type": "VEC2"
    },
    {
      "bufferView": 1,
      "byteOffset": 84128,
      "componentType": 5126,
      "count": 5258,
      "max": [
        0.9900977611541748,
        0.9916900992393494
      ],
      "min": [
        0.00900309905409813,
        0.010029613971710205
      ],
      "type": "VEC2"
    },
    {
      "bufferView": 0,
      "componentType": 5125,
      "count": 17142,
      "type": "SCALAR"
    },
    {
      "bufferView": 2,
      "byteOffset": 126192,
      "componentType": 5126,
      "count": 3360,
      "max": [
        6.589427947998047,
        10.334320068359375,
        16.605392456054688
      ],
      "min": [
        -6.589433670043945,
        -1.0765259265899658,
        -13.449122428894043
      ],
      "type": "VEC3"
    },
    {
      "bufferView": 2,
      "byteOffset": 166512,
      "componentType": 5126,
      "count": 3360,
      "max": [
        1.0,
        0.9999997615814209,
        1.0
      ],
      "min": [
        -1.0,
        -0.9999833703041077,
        -1.0
      ],
      "type": "VEC3"
    },
    {
      "bufferView": 1,
      "byteOffset": 126192,
      "componentType": 5126,
      "count": 3360,
      "max": [
        0.7206740379333496,
        0.6907823085784912
      ],
      "min": [
        0.0005865693092346191,
        0.0005082488059997559
      ],
      "type": "VEC2"
    },
    {
      "bufferView": 1,
      "byteOffset": 153072,
      "componentType": 5126,
      "count": 3360,
      "max": [
        0.7206740379333496,
        0.6907823085784912
      ],
      "min": [
        0.0005865693092346191,
        0.0005082488059997559
      ],
      "type": "VEC2"
    },
    {
      "bufferView": 1,
      "byteOffset": 179952,
      "componentType": 5126,
      "count": 3360,
      "max": [
        0.7206740379333496,
        0.6907823085784912
      ],
      "min": [
        0.0005865693092346191,
        0.0005082488059997559
      ],
      "type": "VEC2"
    },
    {
      "bufferView": 0,
      "byteOffset": 68568,
      "componentType": 5125,
      "count": 12855,
      "type": "SCALAR"
    }
  ],
  "asset": {
    "extras": {
      "author": "masterjack20 (https://sketchfab.com/masterjack20)",
      "license": "CC-BY-4.0 (http://creativecommons.org/licenses/by/4.0/)",
      "source": "https://sketchfab.com/3d-models/fishing-boat-649c006b72e748bf84e7cda011faaff2",
      "title": "Fishing Boat"
    },
    "generator": "Sketchfab-12.67.0",
    "version": "2.0"
  },
  "bufferViews": [
    {
      "buffer": 0,
      "byteLength": 119988,
      "name": "floatBufferViews",
      "target": 34963
    },
    {
      "buffer": 0,
      "byteLength": 206832,
      "byteOffset": 119988,
      "byteStride": 8,
      "name": "floatBufferViews",
      "target": 34962
    },
    {
      "buffer": 0,
      "byteLength": 206832,
      "byteOffset": 326820,
      "byteStride": 12,
      "name": "floatBufferViews",
      "target": 34962
    }
  ],
  "buffers": [
    {
      "byteLength": 533652,
      "uri": "scene.bin"
    }
  ],
  "extensionsRequired": [
    "KHR_materials_pbrSpecularGlossiness"
  ],
  "extensionsUsed": [
    "KHR_materials_pbrSpecularGlossiness"
  ],
  "images": [
    {
      "uri": "textures/material_diffuse.png"
    },
    {
      "uri": "textures/material_specularGlossiness.png"
    },
    {
      "uri": "textures/material_1_diffuse.png"
    },
    {
      "uri": "textures/material_1_specularGlossiness.png"
    }
  ],
  "materials": [
    {
      "alphaCutoff": 0.0,
      "alphaMode": "MASK",
      "doubleSided": true,
      "extensions": {
        "KHR_materials_pbrSpecularGlossiness": {
          "diffuseFactor": [
            1.0,
            1.0,
            1.0,
            1.0
          ],
          "diffuseTexture": {
            "index": 0
          },
          "glossinessFactor": 1.0,
          "specularFactor": [
            1.0,
            1.0,
            1.0
          ],
          "specularGlossinessTexture": {
            "index": 1
          }
        }
      },
      "name": "material"
    },
    {
      "alphaCutoff": 0.0,
      "alphaMode": "MASK",
      "doubleSided": true,
      "extensions": {
        "KHR_materials_pbrSpecularGlossiness": {
          "diffuseFactor": [
            1.0,
            1.0,
            1.0,
            1.0
          ],
          "diffuseTexture": {
            "index": 2
          },
          "glossinessFactor": 1.0,
          "specularFactor": [
            1.0,
            1.0,
            1.0
          ],
          "specularGlossinessTexture": {
            "index": 3
          }
        }
      },
      "name": "material_1"
    }
  ],
  "meshes": [
    {
      "name": "Object_0",
      "primitives": [
        {
          "attributes": {
            "NORMAL": 1,
            "POSITION": 0,
            "TEXCOORD_0": 2,
            "TEXCOORD_1": 3,
            "TEXCOORD_2": 4
          },
          "indices": 5,
          "material": 0,
          "mode": 4
        }
      ]
    },
    {
      "name": "Object_1",
      "primitives": [
        {
          "attributes": {
            "NORMAL": 7,
            "POSITION": 6,
            "TEXCOORD_0": 8,
            "TEXCOORD_1": 9,
            "TEXCOORD_2": 10
          },
          "indices": 11,
          "material": 1,
          "mode": 4
        }
      ]
    }
  ],
  "nodes": [
    {
      "children": [
        1
      ],
      "matrix": [
        1.0,
        0.0,
        0.0,
        0.0,
        0.0,
        2.220446049250313e-16,
        -1.0,
        0.0,
        0.0,
        1.0,
        2.220446049250313e-16,
        0.0,
        0.0,
        0.0,
        0.0,
        1.0
      ],
      "name": "Sketchfab_model"
    },
    {
      "children": [
        2
      ],
      "name": "root"
    },
    {
      "children": [
        3
      ],
      "matrix": [
        1.0,
        0.0,
        0.0,
        0.0,
        0.0,
        2.220446049250313e-16,
        1.0,
        0.0,
        0.0,
        -1.0,
        2.220446049250313e-16,
        0.0,
        0.0,
        0.0,
        0.0,
        1.0
      ],
      "name": "GLTF_SceneRootNode"
    },
    {
      "children": [
        4
      ],
      "name": "root_0"
    },
    {
      "children": [
        5,
        7
      ],
      "matrix": [
        2.331823836266238e-10,
        -3.275417497665733e-26,
        -0.0013831543037667673,
        0.0,
        6.466434114472362e-19,
        0.001285633654333651,
        7.857111964539306e-26,
        0.0,
        0.002018329221755237,
        -1.0151720040775827e-18,
        3.402648696464713e-10,
        0.0,
        -2.63521409034729,
        0.04987780377268791,
        0.7346408367156982,
        1.0
      ],
      "name": "node_id81_1"
    },
    {
      "children": [
        6
      ],
      "matrix": [
        21.08050537109375,
        0.0,
        0.0,
        0.0,
        0.0,
        21.08050537109375,
        0.0,
        0.0,
        0.0,
        0.0,
        21.08050537109375,
        0.0,
        0.0003056013665627688,
        -217.0241241455078,
        1271.6844482421875,
        1.0
      ],
      "name": "node_id77_2"
    },
    {
      "mesh": 0,
      "name": "Object_6"
    },
    {
      "children": [
        8
      ],
      "matrix": [
        21.08050537109375,
        0.0,
        0.0,
        0.0,
        0.0,
        21.08050537109375,
        0.0,
        0.0,
        0.0,
        0.0,
        21.08050537109375,
        0.0,
        0.0003056013665627688,
        -217.0241241455078,
        1271.6844482421875,
        1.0
      ],
      "name": "node_id79_3"
    },
    {
      "mesh": 1,
      "name": "Object_8"
    }
  ],
  "samplers": [
    {
      "magFilter": 9729,
      "minFilter": 9987,
      "wrapS": 10497,
      "wrapT": 10497
    }
  ],
  "scene": 0,
  "scenes": [
    {
      "name": "Sketchfab_Scene",
      "nodes": [
        0
      ]
    }
  ],
  "textures": [
    {
      "sampler": 0,
      "source": 0
    },
    {
      "sampler": 0,
      "source": 1
    },
    {
      "sampler": 0,
      "source": 2
    },
    {
      "sampler": 0,
      "source": 3
    }
  ]
}
