{
  "accessors": [
    {
      "bufferView": 2,
      "componentType": 5126,
      "count": 3623,
      "max": [
        0.1563463807106018,
        0.851486325263977,
        0.026744430884718895
      ],
      "min": [
        -1.5365997552871704,
        -0.8499887585639954,
        -1.736067295074463
      ],
      "type": "VEC3"
    },
    {
      "bufferView": 2,
      "byteOffset": 43476,
      "componentType": 5126,
      "count": 3623,
      "max": [
        0.9999971389770508,
        0.9996286034584045,
        1.0
      ],
      "min": [
        -0.9999971389770508,
        -0.9999505281448364,
        -1.0
      ],
      "type": "VEC3"
    },
    {
      "bufferView": 3,
      "componentType": 5126,
      "count": 3623,
      "max": [
        1.0,
        0.9991489052772522,
        1.0,
        1.0
      ],
      "min": [
        -1.0,
        -0.9988846778869629,
        -1.0,
        1.0
      ],
      "type": "VEC4"
    },
    {
      "bufferView": 1,
      "componentType": 5126,
      "count": 3623,
      "max": [
        0.8996403217315674,
        1.0
      ],
      "min": [
        0.0,
        -2.236974978586659e-06
      ],
      "type": "VEC2"
    },
    {
      "bufferView": 0,
      "componentType": 5125,
      "count": 17550,
      "type": "SCALAR"
    }
  ],
  "asset": {
    "extras": {
      "author": "Melon Polygons (https://sketchfab.com/Melonpolygons)",
      "license": "CC-BY-4.0 (http://creativecommons.org/licenses/by/4.0/)",
      "source": "https://sketchfab.com/3d-models/bucket-4bca97591fa24b699d056890e76f147f",
      "title": "Bucket"
    },
    "generator": "Sketchfab-15.55.0",
    "version": "2.0"
  },
  "bufferViews": [
    {
      "buffer": 0,
      "byteLength": 70200,
      "name": "floatBufferViews",
      "target": 34963
    },
    {
      "buffer": 0,
      "byteLength": 28984,
      "byteOffset": 70200,
      "byteStride": 8,
      "name": "floatBufferViews",
      "target": 34962
    },
    {
      "buffer": 0,
      "byteLength": 86952,
      "byteOffset": 99184,
      "byteStride": 12,
      "name": "floatBufferViews",
      "target": 34962
    },
    {
      "buffer": 0,
      "byteLength": 57968,
      "byteOffset": 186136,
      "byteStride": 16,
      "name": "floatBufferViews",
      "target": 34962
    }
  ],
  "buffers": [
    {
      "byteLength": 244104,
      "uri": "scene.bin"
    }
  ],
  "images": [
    {
      "uri": "textures/Bucket.001_baseColor.png"
    },
    {
      "uri": "textures/Bucket.001_metallicRoughness.png"
    },
    {
      "uri": "textures/Bucket.001_normal.png"
    }
  ],
  "materials": [
    {
      "doubleSided": true,
      "name": "Bucket.001",
      "normalTexture": {
        "index": 2
      },
      "pbrMetallicRoughness": {
        "baseColorTexture": {
          "index": 0
        },
        "metallicRoughnessTexture": {
          "index": 1
        }
      }
    }
  ],
  "meshes": [
    {
      "name": "Bucket_HP_Bucket.001_0",
      "primitives": [
        {
          "attributes": {
            "NORMAL": 1,
            "POSITION": 0,
            "TANGENT": 2,
            "TEXCOORD_0": 3
          },
          "indices": 4,
          "material": 0,
          "mode": 4
        }
      ]
    }
  ],
  "nodes": [
    {
      "children": [
        1
      ],
      "matrix": [
        1.0,
        0.0,
        0.0,
        0.0,
        0.0,
        2.220446049250313e-16,
        -1.0,
        0.0,
        0.0,
        1.0,
        2.220446049250313e-16,
        0.0,
        0.0,
        0.0,
        0.0,
        1.0
      ],
      "name": "Sketchfab_model"
    },
    {
      "children": [
        2
      ],
      "matrix": [
        0.009999999776482582,
        0.0,
        0.0,
        0.0,
        0.0,
        0.0,
        0.009999999776482582,
        0.0,
        0.0,
        -0.009999999776482582,
        0.0,
        0.0,
        0.0,
        0.0,
        0.0,
        1.0
      ],
      "name": "Bucket_HP.fbx"
    },
    {
      "children": [
        3
      ],
      "name": "RootNode"
    },
    {
      "children": [
        4
      ],
      "matrix": [
        100.0,
        0.0,
        0.0,
        0.0,
        0.0,
        -1.629206793918314e-05,
        -99.99999999999868,
        0.0,
        0.0,
        99.99999999999868,
        -1.629206793918314e-05,
        0.0,
        67.57254791259766,
        170.07354736328125,
        1.1051582098007202,
        1.0
      ],
      "name": "Bucket_HP"
    },
    {
      "mesh": 0,
      "name": "Bucket_HP_Bucket.001_0"
    }
  ],
  "samplers": [
    {
      "magFilter": 9729,
      "minFilter": 9987,
      "wrapS": 10497,
      "wrapT": 10497
    }
  ],
  "scene": 0,
  "scenes": [
    {
      "name": "Sketchfab_Scene",
      "nodes": [
        0
      ]
    }
  ],
  "textures": [
    {
      "sampler": 0,
      "source": 0
    },
    {
      "sampler": 0,
      "source": 1
    },
    {
      "sampler": 0,
      "source": 2
    }
  ]
}
