{
  "accessors": [
    {
      "bufferView": 2,
      "componentType": 5126,
      "count": 14932,
      "max": [
        1.0180132389068604,
        2.121843099594116,
        1.0180132389068604
      ],
      "min": [
        -1.0180132389068604,
        -0.018013250082731247,
        -1.0180132389068604
      ],
      "type": "VEC3"
    },
    {
      "bufferView": 2,
      "byteOffset": 179184,
      "componentType": 5126,
      "count": 14932,
      "max": [
        1.0,
        1.0,
        1.0
      ],
      "min": [
        -1.0,
        -1.0,
        -1.0
      ],
      "type": "VEC3"
    },
    {
      "bufferView": 3,
      "componentType": 5126,
      "count": 14932,
      "max": [
        1.0,
        1.0,
        1.0,
        1.0
      ],
      "min": [
        -1.0,
        -1.0,
        -1.0,
        -1.0
      ],
      "type": "VEC4"
    },
    {
      "bufferView": 1,
      "componentType": 5126,
      "count": 14932,
      "max": [
        0.9972627758979797,
        0.9973674416542053
      ],
      "min": [
        0.002630863105878234,
        0.0026333786081522703
      ],
      "type": "VEC2"
    },
    {
      "bufferView": 0,
      "componentType": 5125,
      "count": 44964,
      "type": "SCALAR"
    },
    {
      "bufferView": 2,
      "byteOffset": 358368,
      "componentType": 5126,
      "count": 480,
      "max": [
        0.015447020530700684,
        0.015446901321411133,
        0.31818458437919617
      ],
      "min": [
        -0.3710331916809082,
        -0.015447139739990234,
        -0.31818458437919617
      ],
      "type": "VEC3"
    },
    {
      "bufferView": 2,
      "byteOffset": 364128,
      "componentType": 5126,
      "count": 480,
      "max": [
        1.0,
        1.0,
        1.0
      ],
      "min": [
        -1.0,
        -1.0,
        -1.0
      ],
      "type": "VEC3"
    },
    {
      "bufferView": 3,
      "byteOffset": 238912,
      "componentType": 5126,
      "count": 480,
      "max": [
        1.0,
        1.0,
        1.0,
        1.0
      ],
      "min": [
        -1.0,
        -1.0,
        -1.0,
        1.0
      ],
      "type": "VEC4"
    },
    {
      "bufferView": 1,
      "byteOffset": 119456,
      "componentType": 5126,
      "count": 480,
      "max": [
        0.9969935417175293,
        0.9427385926246643
      ],
      "min": [
        0.002632439136505127,
        0.0026386661920696497
      ],
      "type": "VEC2"
    },
    {
      "bufferView": 0,
      "byteOffset": 179856,
      "componentType": 5125,
      "count": 1248,
      "type": "SCALAR"
    },
    {
      "bufferView": 2,
      "byteOffset": 369888,
      "componentType": 5126,
      "count": 480,
      "max": [
        0.015447020530700684,
        0.015446901321411133,
        0.31818458437919617
      ],
      "min": [
        -0.3710331916809082,
        -0.015447139739990234,
        -0.31818458437919617
      ],
      "type": "VEC3"
    },
    {
      "bufferView": 2,
      "byteOffset": 375648,
      "componentType": 5126,
      "count": 480,
      "max": [
        1.0,
        1.0,
        1.0
      ],
      "min": [
        -1.0,
        -1.0,
        -1.0
      ],
      "type": "VEC3"
    },
    {
      "bufferView": 3,
      "byteOffset": 246592,
      "componentType": 5126,
      "count": 480,
      "max": [
        1.0,
        1.0,
        1.0,
        1.0
      ],
      "min": [
        -1.0,
        -1.0,
        -1.0,
        1.0
      ],
      "type": "VEC4"
    },
    {
      "bufferView": 1,
      "byteOffset": 123296,
      "componentType": 5126,
      "count": 480,
      "max": [
        0.993850588798523,
        0.9427385926246643
      ],
      "min": [
        0.002660214900970459,
        0.0026386689860373735
      ],
      "type": "VEC2"
    },
    {
      "bufferView": 0,
      "byteOffset": 184848,
      "componentType": 5125,
      "count": 1248,
      "type": "SCALAR"
    },
    {
      "bufferView": 2,
      "byteOffset": 381408,
      "componentType": 5126,
      "count": 26,
      "max": [
        0.9992195963859558,
        15.013428688049316,
        0.9955040216445923
      ],
      "min": [
        -0.9992203116416931,
        2.0803213119506836,
        -0.9955044984817505
      ],
      "type": "VEC3"
    },
    {
      "bufferView": 2,
      "byteOffset": 381720,
      "componentType": 5126,
      "count": 26,
      "max": [
        0.9913755655288696,
        -0.08328542858362198,
        0.9913987517356873
      ],
      "min": [
        -0.9913780689239502,
        -0.9605563879013062,
        -0.9913987517356873
      ],
      "type": "VEC3"
    },
    {
      "bufferView": 1,
      "byteOffset": 127136,
      "componentType": 5126,
      "count": 26,
      "max": [
        36.21990966796875,
        0.783576250076294
      ],
      "min": [
        -35.21990966796875,
        0.2542213201522827
      ],
      "type": "VEC2"
    },
    {
      "bufferView": 0,
      "byteOffset": 189840,
      "componentType": 5125,
      "count": 42,
      "type": "SCALAR"
    }
  ],
  "asset": {
    "extras": {
      "author": "Elin (https://sketchfab.com/ElinHohler)",
      "license": "CC-BY-4.0 (http://creativecommons.org/licenses/by/4.0/)",
      "source": "https://sketchfab.com/3d-models/shark-cage-02ca137c3f4c4ce8b4537cd515119aed",
      "title": "Shark Cage"
    },
    "generator": "Sketchfab-12.67.0",
    "version": "2.0"
  },
  "bufferViews": [
    {
      "buffer": 0,
      "byteLength": 190008,
      "name": "floatBufferViews",
      "target": 34963
    },
    {
      "buffer": 0,
      "byteLength": 127344,
      "byteOffset": 190008,
      "byteStride": 8,
      "name": "floatBufferViews",
      "target": 34962
    },
    {
      "buffer": 0,
      "byteLength": 382032,
      "byteOffset": 317352,
      "byteStride": 12,
      "name": "floatBufferViews",
      "target": 34962
    },
    {
      "buffer": 0,
      "byteLength": 254272,
      "byteOffset": 699384,
      "byteStride": 16,
      "name": "floatBufferViews",
      "target": 34962
    }
  ],
  "buffers": [
    {
      "byteLength": 953656,
      "uri": "scene.bin"
    }
  ],
  "images": [
    {
      "uri": "textures/Cage_baseColor.jpeg"
    },
    {
      "uri": "textures/Cage_metallicRoughness.png"
    },
    {
      "uri": "textures/Cage_normal.jpeg"
    },
    {
      "uri": "textures/Rope_baseColor.jpeg"
    }
  ],
  "materials": [
    {
      "doubleSided": true,
      "name": "Cage",
      "normalTexture": {
        "index": 2
      },
      "pbrMetallicRoughness": {
        "baseColorTexture": {
          "index": 0
        },
        "metallicRoughnessTexture": {
          "index": 1
        }
      }
    },
    {
      "doubleSided": true,
      "name": "Rope",
      "pbrMetallicRoughness": {
        "baseColorTexture": {
          "index": 3
        },
        "metallicFactor": 0.0,
        "roughnessFactor": 0.0
      }
    }
  ],
  "meshes": [
    {
      "name": "Object_0",
      "primitives": [
        {
          "attributes": {
            "NORMAL": 1,
            "POSITION": 0,
            "TANGENT": 2,
            "TEXCOORD_0": 3
          },
          "indices": 4,
          "material": 0,
          "mode": 4
        }
      ]
    },
    {
      "name": "Object_1",
      "primitives": [
        {
          "attributes": {
            "NORMAL": 6,
            "POSITION": 5,
            "TANGENT": 7,
            "TEXCOORD_0": 8
          },
          "indices": 9,
          "material": 0,
          "mode": 4
        }
      ]
    },
    {
      "name": "Object_2",
      "primitives": [
        {
          "attributes": {
            "NORMAL": 11,
            "POSITION": 10,
            "TANGENT": 12,
            "TEXCOORD_0": 13
          },
          "indices": 14,
          "material": 0,
          "mode": 4
        }
      ]
    },
    {
      "name": "Object_3",
      "primitives": [
        {
          "attributes": {
            "NORMAL": 16,
            "POSITION": 15,
            "TEXCOORD_0": 17
          },
          "indices": 18,
          "material": 1,
          "mode": 4
        }
      ]
    }
  ],
  "nodes": [
    {
      "children": [
        1
      ],
      "matrix": [
        1.0,
        0.0,
        0.0,
        0.0,
        0.0,
        2.220446049250313e-16,
        -1.0,
        0.0,
        0.0,
        1.0,
        2.220446049250313e-16,
        0.0,
        0.0,
        0.0,
        0.0,
        1.0
      ],
      "name": "Sketchfab_model"
    },
    {
      "children": [
        2
      ],
      "name": "root"
    },
    {
      "children": [
        3
      ],
      "matrix": [
        1.0,
        0.0,
        0.0,
        0.0,
        0.0,
        2.220446049250313e-16,
        1.0,
        0.0,
        0.0,
        -1.0,
        2.220446049250313e-16,
        0.0,
        0.0,
        0.0,
        0.0,
        1.0
      ],
      "name": "GLTF_SceneRootNode"
    },
    {
      "children": [
        4,
        5,
        7,
        9
      ],
      "name": "Cage_3"
    },
    {
      "mesh": 0,
      "name": "Object_4"
    },
    {
      "children": [
        6
      ],
      "matrix": [
        1.0,
        0.0,
        0.0,
        0.0,
        0.0,
        1.0,
        0.0,
        0.0,
        0.0,
        0.0,
        1.0,
        0.0,
        0.8637876510620117,
        2.0951313972473145,
        0.0,
        1.0
      ],
      "name": "CageEntrance_01_0"
    },
    {
      "mesh": 1,
      "name": "Object_6"
    },
    {
      "children": [
        8
      ],
      "matrix": [
        -0.9999999999999241,
        0.0,
        3.8941436741877966e-07,
        0.0,
        -0.0,
        1.0,
        0.0,
        0.0,
        -3.8941436741877966e-07,
        0.0,
        -0.9999999999999241,
        0.0,
        -0.860934317111969,
        2.0951313972473145,
        0.0,
        1.0
      ],
      "name": "CageEntrance_02_1"
    },
    {
      "mesh": 2,
      "name": "Object_8"
    },
    {
      "children": [
        10
      ],
      "name": "Rope_2"
    },
    {
      "mesh": 3,
      "name": "Object_10"
    }
  ],
  "samplers": [
    {
      "magFilter": 9729,
      "minFilter": 9987,
      "wrapS": 10497,
      "wrapT": 10497
    }
  ],
  "scene": 0,
  "scenes": [
    {
      "name": "Sketchfab_Scene",
      "nodes": [
        0
      ]
    }
  ],
  "textures": [
    {
      "sampler": 0,
      "source": 0
    },
    {
      "sampler": 0,
      "source": 1
    },
    {
      "sampler": 0,
      "source": 2
    },
    {
      "sampler": 0,
      "source": 3
    }
  ]
}
